<svg xmlns="http://www.w3.org/2000/svg"
  xmlns:xlink="http://www.w3.org/1999/xlink" width="600.252" height="600.061" viewBox="0 0 600.252 600.061">
  <defs>
    <clipPath id="clip-path">
      <path id="Path_2" data-name="Path 2" d="M1528.194,861.14c150.637,0,272.755-122.692,272.755-273.329,0-149.489-122.118-272.372-272.755-272.372-149.489,0-272.755,122.692-272.755,272.372,0,150.637,123.075,273.329,272.755,273.329Z"/>
    </clipPath>
  </defs>
  <g id="g3606" transform="translate(-1228.067 -289.982)">
    <path id="path3502" d="M1528.194,289.982c-79.625,0-154.848,31.2-211.7,88.047-57.039,56.848-88.43,131.879-88.43,211.5,0,165.758,134.559,300.509,300.126,300.509,165.376,0,300.126-134.75,300.126-300.509C1828.128,424.349,1693.569,289.982,1528.194,289.982Zm0,12.25c158.676,0,287.685,128.817,287.685,287.111,0,158.868-129.008,288.068-287.685,288.068s-287.685-129.2-287.685-288.068c0-76.18,30.051-148.149,84.793-202.7C1379.662,332.283,1451.822,302.232,1528.194,302.232Z"/>
    <g id="Group_2" data-name="Group 2">
      <g id="Group_1" data-name="Group 1" clip-path="url(#clip-path)">
        <path id="path3530" d="M1435.744,340.7a8.716,8.716,0,0,0-4.4,1.531c3.445-1.34,5.168-1.531,4.4-1.531m89.578,17.418.957-13.207-13.781.957,1.914,12.25h10.91M1369.134,584.748c-2.871-2.68-.957-13.973-.957-13.973s-41.535-21.82-86.9-35.027c-5.551-1.531-2.68-13.207,2.68-17.418l-1.914-12.25c-.957-6.125,9.188-35.793,19.332-38.473s-.957,17.418-.957,17.418l-10.145,6.125s12.059,13.973,14.738,13.973,7.465-7.082,7.465-7.082l-13.016-8.8,12.059-5.168.766-4.594,2.105-.574,19.906-30.051c13.781-5.551,30.625-12.633,32.731-13.59,3.637-1.723,29.668-16.652,34.262-20.1s14.738-2.68,18.375-2.68,9.188-1.723,10.145-11.484c.957-9.57,4.594-11.293,7.465-8.8,2.68,2.68-2.871,7.082,3.637,8.8s12.059,6.125,16.652,1.723c3.445-3.254-1.148-6.891-4.211-9.57h51.3l5.551-15.7-12.059-1.723-44.406-4.4v-5.168l-3.637.574c4.785-26.414,33.3-22.012,11.867-37.324-1.34-.957-20.1,29.668-24.883,29.094-8.613-1.148-19.906-1.148-22.2,1.531-3.254,3.637,7.082-12.824,15.887-17.8-10.527,3.063-29.285-6.508-63.356,17.609-11.484,8.039-40.387,40.961-52.254,53.594-50.149,59.145-54.168,109.868-54.168,112.164,0,4.4,10.719,6.891,11.484,12.059.957,5.168-17.609,22.777-17.609,31.391,0,4.02-9.187,47.66,11.1,102.4,17.992,51.871,52.828,97.618,57.422,100.489l12.824-6.891s-21.246-37.707-22.2-41.153,23.926-54.168,35.984-52.445,9.188,5.168,16.652.957c7.465-4.4,12.059-40.2,20.289-43.641s17.609-7.848,16.652-16.652c-.192-9-31.582-24.883-34.453-27.371M1569.729,327.5l-24.883-8.8,4.594,13.973,20.289-5.168m-93.407,32.348c2.871,0,58.188-36.75,52.637-37.707s-6.508,0-21.246-1.723-30.434,21.055-34.262,24.5c-3.637,3.637-2.3,14.93,2.871,14.93M1730.7,623.6l7.082-9.379-7.082-2.488-5.359,6.7-6.316,9.188,5.359,2.488,6.316-6.508m31.391,30.434-1.723-13.59h-11.676l-.957,10.145-10.719-1.723-2.68-10.91-5.359-3.445-6.316,7.656-6.316-1.723-1.723,5.934,7.082,1.723v54.742l25.266,6.125a24.652,24.652,0,0,0-1.148,2.3c-1.723,5.934,7.082,8.422,13.4,5.934,2.3-.957,16.844-6.508,21.438-17.609,6.508-15.313,10.527-37.324,11.676-44.6l-2.871-6.125-17.8,6.7-9.571-1.531h0m-9-224.329c-40.961-62.016-139.153-102.594-139.153-102.594l-25.266,13.207-3.637-5.934-9-3.445V338.6l8.039,6.7-5.359,2.488-20.481,1.723-46.512,25.266,4.4,20.289-5.359,1.723L1508.1,401l15.121,22.777.957,7.656-12.442,2.488v15.121l-7.082,1.723.957,11.867-60.867,42.11,1.723,23.543c4.4,5.934,39.43,41.344,39.43,41.344s40.2,1.723,49.192-3.445c9-4.977,2.68,4.977,5.359,7.656,2.68,2.488,3.637,20.289,6.316,22.012s0,11.867,3.637,15.121c3.637,3.445,3.637,43.832,3.637,43.832s21.438,36.176,21.438,45.555-.957,8.422,16.078,7.656,20.481-7.656,24.117-10.145,3.637-8.422,7.082-13.59c3.637-4.977,9.762-24.5,17.992-31.2,8.039-6.7,29.477-11.867,31.2-23.543,1.723-11.867,9.762-21.055,9.762-21.055l38.664-40.961-1.148,5.551-.957,21.055,11.676-4.211-.957-22.777-4.211-4.4.574-.574s-2.68-4.977-6.316-4.977-25.074,4.977-28.711,4.211-18.758-41.344-21.438-43.067-19.715-29.477-19.715-29.477,39.238,47.278,45.555,65.844c3.637,10.719,17.227.766,28.328-10.527l2.871,7.082L1733,549.53l-.957-8.422h8.039V553.74l-2.68,6.7-.957,10.91,7.082,6.7,3.637-5.934,11.676-10.91,13.4-6.7,3.637,6.7,1.723,9.188-3.637,10.145-7.082,5.934-3.637,15.121v7.656l-8.039-4.977-.957-16.078-11.676.957-5.359,14.356,8.039,11.867,18.758,2.488,15.121-14.356,1.723-27.754,6.7-9c4.4,11.293,7.656,23.16,7.656,34.262,0,12.059,9.57-6.125,4.977-43.067.766,0-6.508-87.856-47.086-128.243Zm-178.966,36.176-48.235-1.723,20.481-16.844H1557.1l17.035,11.867v6.7m59.145-5.742V467.8H1612.8l1.723,4.977-12.442,1.723-.957,4.211-9-1.723-16.078-3.445,2.68-4.211,2.68-5.168,9-9.188,3.637,6.7,13.4-.766,7.082-7.656,27.754,4.977-9,1.914m1.723-11.1-10.719,1.723-1.723-7.656,13.4-1.723,1.723-7.656,9.762,10.145L1635,449.041h0m51.871,262.228-6.316,4.977.957,12.633h8.039v-10.91l7.274-9.379V689.257l-4.594-.957-5.359,22.969h0M1626.959,686s-6.316,1.531.957,4.211c7.082,2.488,35.793-41.344,35.793-41.344l-24.117,15.121L1626.959,686h0m-48.617,161.739-5.359-5.168-10.719-1.723-1.723,5.168-14.355-1.723-.957-6.7H1534.51l-11.676,6.7h-20.481l-1.723-5.168-33.113-3.445-5.359,5.168-13.4-3.445-1.723-11.867-6.316-.957-7.082,12.824-24.117-.957c4.4,2.105,40.387,23.543,95.7,27.945,73.309,5.934,108.145-11.867,108.145-11.867l-2.68-2.488-32.348-2.3Z"/>
      </g>
    </g>
  </g>
</svg>
